<svg width="24" height="24" viewBox="0 0 24 24" fill="none" xmlns="http://www.w3.org/2000/svg">
<path d="M9.23438 2.53516C6.16641 2.53516 3.67969 5.02188 3.67969 8.08984C3.67969 11.1578 6.16641 13.6445 9.23438 13.6445C12.3023 13.6445 14.7891 11.1578 14.7891 8.08984C14.7891 5.02188 12.3023 2.53516 9.23438 2.53516ZM9.23438 11.7062C7.2375 11.7062 5.61797 10.0867 5.61797 8.08984C5.61797 6.09297 7.2375 4.47344 9.23438 4.47344C11.2312 4.47344 12.8508 6.09297 12.8508 8.08984C12.8508 10.0867 11.2312 11.7062 9.23438 11.7062Z" fill="white"/>
<path d="M9.22266 13.6187C12.7641 13.6187 15.6352 16.4898 15.6352 20.0312H17.5547C17.5547 15.4305 13.8234 11.6992 9.22266 11.6992C4.62187 11.6992 0.890625 15.4305 0.890625 20.0312H2.81016C2.81016 16.4898 5.68125 13.6187 9.22266 13.6187Z" fill="white"/>
<path d="M0.890625 20.0484C0.890625 20.3027 0.991619 20.5465 1.17139 20.7263C1.35116 20.906 1.59498 21.007 1.84922 21.007C2.10345 21.007 2.34728 20.906 2.52705 20.7263C2.70682 20.5465 2.80781 20.3027 2.80781 20.0484C2.80781 19.7942 2.70682 19.5504 2.52705 19.3706C2.34728 19.1908 2.10345 19.0898 1.84922 19.0898C1.59498 19.0898 1.35116 19.1908 1.17139 19.3706C0.991619 19.5504 0.890625 19.7942 0.890625 20.0484Z" fill="white"/>
<path d="M15.6377 20.0484C15.6377 20.3027 15.7387 20.5465 15.9185 20.7263C16.0982 20.906 16.3421 21.007 16.5963 21.007C16.8505 21.007 17.0943 20.906 17.2741 20.7263C17.4539 20.5465 17.5549 20.3027 17.5549 20.0484C17.5549 19.7942 17.4539 19.5504 17.2741 19.3706C17.0943 19.1908 16.8505 19.0898 16.5963 19.0898C16.3421 19.0898 16.0982 19.1908 15.9185 19.3706C15.7387 19.5504 15.6377 19.7942 15.6377 20.0484Z" fill="white"/>
<path d="M14.5898 12.6852C14.5898 12.811 14.6146 12.9357 14.6628 13.052C14.711 13.1683 14.7816 13.274 14.8706 13.363C14.9596 13.452 15.0653 13.5226 15.1816 13.5708C15.2979 13.619 15.4226 13.6437 15.5484 13.6437C15.6743 13.6437 15.799 13.619 15.9153 13.5708C16.0316 13.5226 16.1373 13.452 16.2263 13.363C16.3153 13.274 16.3859 13.1683 16.4341 13.052C16.4822 12.9357 16.507 12.811 16.507 12.6852C16.507 12.5593 16.4822 12.4346 16.4341 12.3183C16.3859 12.202 16.3153 12.0963 16.2263 12.0073C16.1373 11.9183 16.0316 11.8477 15.9153 11.7995C15.799 11.7514 15.6743 11.7266 15.5484 11.7266C15.4226 11.7266 15.2979 11.7514 15.1816 11.7995C15.0653 11.8477 14.9596 11.9183 14.8706 12.0073C14.7816 12.0963 14.711 12.202 14.6628 12.3183C14.6146 12.4346 14.5898 12.5593 14.5898 12.6852Z" fill="white"/>
<path d="M14.1143 3.49766C14.1143 3.62354 14.1391 3.74819 14.1872 3.86449C14.2354 3.9808 14.306 4.08647 14.395 4.17548C14.484 4.2645 14.5897 4.33511 14.706 4.38328C14.8223 4.43146 14.947 4.45625 15.0729 4.45625C15.1987 4.45625 15.3234 4.43146 15.4397 4.38328C15.556 4.33511 15.6617 4.2645 15.7507 4.17548C15.8397 4.08647 15.9103 3.9808 15.9585 3.86449C16.0066 3.74819 16.0314 3.62354 16.0314 3.49766C16.0314 3.37177 16.0066 3.24712 15.9585 3.13082C15.9103 3.01452 15.8397 2.90884 15.7507 2.81983C15.6617 2.73081 15.556 2.6602 15.4397 2.61203C15.3234 2.56386 15.1987 2.53906 15.0729 2.53906C14.947 2.53906 14.8223 2.56386 14.706 2.61203C14.5897 2.6602 14.484 2.73081 14.395 2.81983C14.306 2.90884 14.2354 3.01452 14.1872 3.13082C14.1391 3.24712 14.1143 3.37177 14.1143 3.49766Z" fill="white"/>
<path d="M23.1793 20.0305C23.1793 16.6625 21.1801 13.7609 18.3043 12.4461C19.5887 11.4289 20.4137 9.85391 20.4137 8.08906C20.4137 5.09375 18.0418 2.65156 15.0723 2.53906V4.45625C16.9707 4.56641 18.4754 6.16484 18.4754 8.08906C18.4754 9.93594 17.1605 11.5273 15.3746 11.7477C15.2434 11.7641 15.0723 11.9211 15.0723 12.0523V13.4727C15.0723 13.0039 15.1449 13.4586 15.241 13.4656L15.3582 13.6297C18.7168 13.8336 21.2598 16.6203 21.2598 20.0305H21.2621V20.0492C21.2621 20.5789 21.691 21.0078 22.2207 21.0078C22.7504 21.0078 23.1793 20.5789 23.1793 20.0492V20.0305Z" fill="white"/>
</svg>
